<svg xmlns="http://www.w3.org/2000/svg" xmlns:xlink="http://www.w3.org/1999/xlink" width="500" zoomAndPan="magnify" viewBox="0 0 375 374.999991" height="500" preserveAspectRatio="xMidYMid meet" version="1.0"><defs><clipPath id="089d33976d"><path d="M 106.683594 4.269531 L 267.640625 4.269531 L 267.640625 370.949219 L 106.683594 370.949219 Z M 106.683594 4.269531 " clip-rule="nonzero"/></clipPath><clipPath id="a02511126d"><path d="M 113.914062 4.269531 L 260.40625 4.269531 L 260.40625 370.949219 L 113.914062 370.949219 Z M 113.914062 4.269531 " clip-rule="nonzero"/></clipPath><clipPath id="e17f4a1f5c"><path d="M 122.546875 4.269531 L 251.777344 4.269531 L 251.777344 370.949219 L 122.546875 370.949219 Z M 122.546875 4.269531 " clip-rule="nonzero"/></clipPath><clipPath id="d857e23384"><path d="M 144.472656 4.269531 L 229.847656 4.269531 L 229.847656 370.949219 L 144.472656 370.949219 Z M 144.472656 4.269531 " clip-rule="nonzero"/></clipPath><clipPath id="88515b144a"><path d="M 127.910156 345.761719 L 246.410156 345.761719 L 246.410156 370.949219 L 127.910156 370.949219 Z M 127.910156 345.761719 " clip-rule="nonzero"/></clipPath><clipPath id="1f712158b2"><path d="M 91.054688 84 L 115 84 L 115 99 L 91.054688 99 Z M 91.054688 84 " clip-rule="nonzero"/></clipPath><clipPath id="d30103a7f1"><path d="M 260.40625 84.855469 L 283.804688 84.855469 L 283.804688 98.867188 L 260.40625 98.867188 Z M 260.40625 84.855469 " clip-rule="nonzero"/></clipPath><clipPath id="d973e84c11"><path d="M 151 4.230469 L 223 4.230469 L 223 9 L 151 9 Z M 151 4.230469 " clip-rule="nonzero"/></clipPath></defs><g clip-path="url(#089d33976d)"><path fill="#262626" d="M 159.285156 4.269531 L 215.042969 4.269531 C 243.941406 4.269531 267.585938 27.945312 267.585938 56.882812 L 267.585938 318.335938 C 267.585938 347.273438 243.941406 370.949219 215.042969 370.949219 L 159.285156 370.949219 C 130.386719 370.949219 106.738281 347.273438 106.738281 318.335938 L 106.738281 56.882812 C 106.738281 27.945312 130.382812 4.269531 159.285156 4.269531 " fill-opacity="1" fill-rule="evenodd"/></g><g clip-path="url(#a02511126d)"><path fill="#1f1d1d" d="M 161.058594 4.269531 L 213.265625 4.269531 C 217.992188 4.269531 222.585938 4.789062 226.992188 5.761719 C 247.011719 17.113281 260.398438 37.253906 260.398438 60.089844 C 260.398438 154.109375 260.398438 221.109375 260.398438 315.128906 C 260.398438 337.964844 247.011719 358.105469 226.992188 369.457031 C 222.585938 370.429688 217.988281 370.949219 213.265625 370.949219 L 161.058594 370.949219 C 156.335938 370.949219 151.738281 370.429688 147.332031 369.457031 C 127.3125 358.105469 113.929688 337.964844 113.929688 315.128906 C 113.929688 221.109375 113.929688 154.109375 113.929688 60.089844 C 113.929688 37.253906 127.3125 17.113281 147.332031 5.761719 C 151.738281 4.789062 156.335938 4.269531 161.058594 4.269531 " fill-opacity="1" fill-rule="evenodd"/></g><g clip-path="url(#e17f4a1f5c)"><path fill="#262626" d="M 164.148438 4.269531 L 210.175781 4.269531 C 214.339844 4.269531 218.394531 4.789062 222.277344 5.761719 C 239.925781 17.113281 251.722656 37.253906 251.722656 60.089844 C 251.722656 154.109375 251.722656 221.109375 251.722656 315.128906 C 251.722656 338.785156 236.234375 370.949219 210.175781 370.949219 L 164.148438 370.949219 C 138.09375 370.949219 122.601562 338.785156 122.601562 315.128906 C 122.601562 221.109375 122.601562 154.109375 122.601562 60.089844 C 122.601562 37.253906 134.402344 17.113281 152.050781 5.761719 C 155.933594 4.789062 159.984375 4.269531 164.148438 4.269531 " fill-opacity="1" fill-rule="evenodd"/></g><g clip-path="url(#d857e23384)"><path fill="#1f1d1d" d="M 171.964844 4.269531 L 202.363281 4.269531 C 205.113281 4.269531 207.789062 4.789062 210.355469 5.761719 C 222.011719 17.113281 229.804688 37.253906 229.804688 60.089844 C 229.804688 154.109375 229.804688 220.546875 229.804688 314.5625 C 229.804688 337.402344 222.011719 358.105469 210.355469 369.457031 C 207.789062 370.429688 205.109375 370.949219 202.363281 370.949219 C 192.230469 370.949219 182.097656 370.949219 171.964844 370.949219 C 169.214844 370.949219 166.535156 370.429688 163.972656 369.457031 C 152.316406 358.105469 144.519531 337.402344 144.519531 314.5625 C 144.519531 220.546875 144.519531 154.109375 144.519531 60.089844 C 144.519531 37.253906 152.316406 17.113281 163.972656 5.761719 C 166.535156 4.789062 169.210938 4.269531 171.964844 4.269531 " fill-opacity="1" fill-rule="evenodd"/></g><path fill="#333030" d="M 134.6875 361.683594 L 239.644531 361.683594 L 239.644531 125.265625 L 134.6875 125.265625 L 134.6875 361.683594 " fill-opacity="1" fill-rule="evenodd"/><path fill="#1f1d1d" d="M 147.542969 352.457031 L 141.964844 352.457031 L 141.964844 128.882812 L 147.542969 128.882812 L 147.542969 352.457031 " fill-opacity="1" fill-rule="evenodd"/><path fill="#1f1d1d" d="M 226.710938 125.265625 L 232.285156 125.265625 L 232.285156 352.457031 L 226.710938 352.457031 L 226.710938 125.265625 " fill-opacity="1" fill-rule="evenodd"/><path fill="#4a5f6a" d="M 128.457031 93.132812 C 159.480469 77.472656 214.84375 77.472656 245.871094 93.132812 C 251.851562 96.355469 252.792969 102.832031 251.605469 109.207031 C 247.617188 124.980469 243.628906 140.75 239.640625 156.523438 C 199.664062 148.085938 174.664062 148.085938 134.6875 156.523438 C 130.699219 140.75 126.710938 124.980469 122.722656 109.207031 C 121.53125 102.832031 122.476562 96.355469 128.457031 93.132812 " fill-opacity="1" fill-rule="evenodd"/><path fill="#3d535e" d="M 128.457031 93.132812 C 159.480469 77.472656 214.84375 77.472656 245.871094 93.132812 C 251.210938 96.011719 252.535156 101.488281 251.90625 107.164062 C 217.042969 90.589844 157.285156 90.589844 122.417969 107.164062 C 121.792969 101.488281 123.113281 96.011719 128.457031 93.132812 " fill-opacity="1" fill-rule="evenodd"/><g clip-path="url(#88515b144a)"><path fill="#4a5f6a" d="M 246.351562 360.515625 L 239.640625 345.785156 C 213.351562 366.234375 163.765625 365.214844 134.6875 345.785156 L 127.972656 360.515625 C 136.734375 367.0625 147.578125 370.949219 159.285156 370.949219 L 215.042969 370.949219 C 226.75 370.949219 237.59375 367.0625 246.351562 360.515625 " fill-opacity="1" fill-rule="evenodd"/></g><g clip-path="url(#1f712158b2)"><path fill="#1f1d1d" d="M 97.960938 84.941406 L 114.457031 84.941406 L 114.457031 98.777344 L 97.960938 98.777344 C 94.164062 98.777344 91.054688 95.664062 91.054688 91.859375 C 91.054688 88.054688 94.164062 84.941406 97.960938 84.941406 " fill-opacity="1" fill-rule="evenodd"/></g><path fill="#bcedf7" d="M 114.457031 95.378906 L 114.457031 98.777344 L 97.960938 98.777344 C 95.445312 98.777344 93.230469 97.410156 92.023438 95.378906 L 114.457031 95.378906 " fill-opacity="1" fill-rule="evenodd"/><g clip-path="url(#d30103a7f1)"><path fill="#1f1d1d" d="M 276.90625 84.910156 L 260.414062 84.910156 L 260.414062 98.746094 L 276.90625 98.746094 C 280.707031 98.746094 283.816406 95.632812 283.816406 91.828125 C 283.816406 88.023438 280.707031 84.910156 276.90625 84.910156 " fill-opacity="1" fill-rule="evenodd"/></g><path fill="#bcedf7" d="M 260.414062 95.347656 L 260.414062 98.746094 L 276.90625 98.746094 C 279.425781 98.746094 281.640625 97.378906 282.847656 95.347656 L 260.414062 95.347656 " fill-opacity="1" fill-rule="evenodd"/><path fill="#4a5f6a" d="M 122.601562 126.5625 L 134.6875 175.738281 L 134.6875 317.699219 L 122.601562 320.585938 L 122.601562 126.5625 " fill-opacity="1" fill-rule="evenodd"/><path fill="#4a5f6a" d="M 251.734375 126.5625 L 239.648438 175.738281 L 239.648438 317.699219 L 251.734375 320.585938 L 251.734375 126.5625 " fill-opacity="1" fill-rule="evenodd"/><path fill="#1f1d1d" d="M 134.6875 247.824219 L 134.6875 251.269531 L 122.601562 251.269531 L 122.601562 247.824219 L 134.6875 247.824219 " fill-opacity="1" fill-rule="evenodd"/><path fill="#1f1d1d" d="M 239.648438 247.824219 L 239.648438 251.269531 L 251.734375 251.269531 L 251.734375 247.824219 L 239.648438 247.824219 " fill-opacity="1" fill-rule="evenodd"/><path fill="#1f1d1d" d="M 134.6875 244.382812 L 134.6875 247.824219 L 122.601562 247.824219 L 122.601562 244.382812 L 134.6875 244.382812 " fill-opacity="1" fill-rule="evenodd"/><path fill="#1f1d1d" d="M 239.648438 244.382812 L 239.648438 247.824219 L 251.734375 247.824219 L 251.734375 244.382812 L 239.648438 244.382812 " fill-opacity="1" fill-rule="evenodd"/><path fill="#bcedf7" d="M 222.710938 6.046875 C 241.417969 9.085938 256.863281 22.4375 263.191406 40.144531 L 248.605469 40.144531 C 244.042969 25.96875 234.769531 13.945312 222.710938 6.046875 " fill-opacity="1" fill-rule="evenodd"/><path fill="#bcedf7" d="M 125.71875 40.144531 L 111.136719 40.144531 C 117.464844 22.4375 132.90625 9.085938 151.617188 6.046875 C 139.554688 13.945312 130.28125 25.96875 125.71875 40.144531 " fill-opacity="1" fill-rule="evenodd"/><path fill="#d6f2fc" d="M 125.71875 40.144531 L 116.832031 40.144531 C 120.625 31.160156 127.683594 23.90625 136.464844 19.957031 C 131.78125 25.910156 128.105469 32.734375 125.71875 40.144531 " fill-opacity="1" fill-rule="evenodd"/><path fill="#d6f2fc" d="M 248.605469 40.144531 L 257.496094 40.144531 C 253.703125 31.160156 246.644531 23.90625 237.859375 19.957031 C 242.546875 25.910156 246.222656 32.734375 248.605469 40.144531 " fill-opacity="1" fill-rule="evenodd"/><g clip-path="url(#d973e84c11)"><path fill="#141111" d="M 159.285156 4.269531 L 215.042969 4.269531 C 217.605469 4.269531 220.128906 4.457031 222.597656 4.816406 C 222.648438 5.027344 222.675781 5.246094 222.675781 5.472656 C 222.675781 6.976562 221.449219 8.203125 219.949219 8.203125 L 154.273438 8.203125 C 152.773438 8.203125 151.546875 6.976562 151.546875 5.472656 C 151.546875 5.253906 151.574219 5.039062 151.625 4.835938 C 154.125 4.460938 156.683594 4.269531 159.285156 4.269531 " fill-opacity="1" fill-rule="evenodd"/></g><path fill="#141111" d="M 134.6875 248.671875 L 122.601562 248.671875 L 122.601562 246.984375 L 134.6875 246.984375 L 134.6875 248.671875 " fill-opacity="1" fill-rule="nonzero"/><path fill="#141111" d="M 251.734375 248.671875 L 239.648438 248.671875 L 239.648438 246.984375 L 251.734375 246.984375 L 251.734375 248.671875 " fill-opacity="1" fill-rule="nonzero"/><path fill="#1f1d1d" d="M 167.234375 171.34375 C 168.769531 171.34375 170.023438 172.601562 170.023438 174.132812 L 170.023438 349.667969 C 170.023438 351.203125 168.769531 352.457031 167.234375 352.457031 C 165.703125 352.457031 164.449219 351.203125 164.449219 349.667969 L 164.449219 174.132812 C 164.449219 172.601562 165.703125 171.34375 167.234375 171.34375 " fill-opacity="1" fill-rule="evenodd"/><path fill="#1f1d1d" d="M 187.46875 171.34375 C 189.003906 171.34375 190.253906 172.601562 190.253906 174.132812 L 190.253906 349.667969 C 190.253906 351.203125 189.003906 352.457031 187.46875 352.457031 C 185.933594 352.457031 184.679688 351.203125 184.679688 349.667969 L 184.679688 174.132812 C 184.679688 172.601562 185.933594 171.34375 187.46875 171.34375 " fill-opacity="1" fill-rule="evenodd"/><path fill="#1f1d1d" d="M 207.703125 171.34375 C 209.234375 171.34375 210.488281 172.601562 210.488281 174.132812 L 210.488281 349.667969 C 210.488281 351.203125 209.234375 352.457031 207.703125 352.457031 C 206.167969 352.457031 204.914062 351.203125 204.914062 349.667969 L 204.914062 174.132812 C 204.914062 172.601562 206.167969 171.34375 207.703125 171.34375 " fill-opacity="1" fill-rule="evenodd"/><path fill="#dd2d2d" d="M 127.972656 360.515625 C 127.964844 360.507812 125.40625 358.347656 121.867188 355.175781 C 114.417969 347.59375 109.230469 337.773438 107.433594 326.847656 C 107.613281 326.847656 117.714844 326.945312 120.480469 331.1875 C 123.265625 335.46875 127.972656 360.515625 127.972656 360.515625 " fill-opacity="1" fill-rule="evenodd"/><path fill="#dd2d2d" d="M 246.355469 360.519531 C 246.363281 360.515625 248.925781 358.347656 252.464844 355.179688 C 259.914062 347.59375 265.097656 337.777344 266.894531 326.851562 C 266.71875 326.851562 256.617188 326.945312 253.851562 331.191406 C 251.0625 335.46875 246.355469 360.519531 246.355469 360.519531 " fill-opacity="1" fill-rule="evenodd"/></svg>